<svg id="Layer_1" data-name="Layer 1" xmlns="http://www.w3.org/2000/svg" viewBox="0 0 107.91 101.65"><defs><style>.cls-1{fill:#f5f50f;}</style></defs><title>box</title><path class="cls-1" d="M119,114.13H48.68l2.5,2.5V46.35l-2.5,2.5H119l-2.5-2.5v70.28c0,3.22,5,3.22,5,0V46.35a2.53,2.53,0,0,0-2.5-2.5H48.68a2.53,2.53,0,0,0-2.5,2.5v70.28a2.54,2.54,0,0,0,2.5,2.5H119C122.18,119.13,122.18,114.13,119,114.13Z" transform="translate(-46.18 -43.85)"/><path class="cls-1" d="M151.59,140.5H81.31l2.5,2.5V72.72l-2.5,2.5h70.28l-2.5-2.5V143c0,3.22,5,3.22,5,0V72.72a2.53,2.53,0,0,0-2.5-2.5H81.31a2.53,2.53,0,0,0-2.5,2.5V143a2.54,2.54,0,0,0,2.5,2.5h70.28C154.81,145.5,154.81,140.5,151.59,140.5Z" transform="translate(-46.18 -43.85)"/></svg>