<svg id="Layer_2" data-name="Layer 2" xmlns="http://www.w3.org/2000/svg" viewBox="0 0 147 116"><defs><style>.cls-1{fill:#f23ab2;}</style></defs><title>camera</title><path class="cls-1" d="M166.5,47.5H43.5a12,12,0,0,0-12,12v83a12,12,0,0,0,12,12h123a12,12,0,0,0,12-12v-83A12,12,0,0,0,166.5,47.5ZM105,133a32,32,0,1,1,32-32A32,32,0,0,1,105,133Z" transform="translate(-31.5 -38.5)"/><path class="cls-1" d="M65.55,49.5a12,12,0,0,1,12-11h54.31a12,12,0,0,1,11.95,11" transform="translate(-31.5 -38.5)"/><circle class="cls-1" cx="73" cy="63" r="23.5"/><rect class="cls-1" x="118.5" y="6.5" width="17" height="4" rx="2" ry="2"/></svg>