<svg id="Layer_1" data-name="Layer 1" xmlns="http://www.w3.org/2000/svg" viewBox="0 0 328.65 324.65"><defs><style>.cls-1{fill:#fff;}.cls-2{fill:#9806f5;}</style></defs><title>cross</title><line class="cls-1" x1="35.86" y1="29.86" x2="298.86" y2="292.86"/><path class="cls-2" d="M47.29,89.71,73.47,115.9l62.88,62.87L212,254.47l65.79,65.78c10.66,10.66,21.11,21.58,32,32l.46.45c11.11,11.12,31.46,11.94,42.42,0s11.86-30.57,0-42.42L326.53,284.1l-62.88-62.87L188,145.53,122.17,79.75c-10.66-10.66-21.11-21.58-32-32l-.46-.45c-11.11-11.12-31.46-11.94-42.42,0s-11.86,30.57,0,42.42Z" transform="translate(-32.64 -38.64)"/><line class="cls-1" x1="29.86" y1="294.86" x2="292.86" y2="31.86"/><path class="cls-2" d="M83.71,354.71l26.19-26.18,62.87-62.88L248.47,190l65.78-65.79c10.66-10.66,21.58-21.11,32-32l.45-.46c11.12-11.11,11.94-31.46,0-42.42s-30.57-11.86-42.42,0L278.1,75.47l-62.87,62.88L139.53,214,73.75,279.83c-10.66,10.66-21.58,21.11-32,32l-.45.46c-11.12,11.11-11.94,31.46,0,42.42s30.57,11.86,42.42,0Z" transform="translate(-32.64 -38.64)"/></svg>