<svg id="Layer_1" data-name="Layer 1" xmlns="http://www.w3.org/2000/svg" viewBox="0 0 303.33 303.33"><defs><style>.cls-1{fill:#7b50a0;}.cls-2{fill:#f3ca5f;}</style></defs><title>editbio_icon</title><circle class="cls-1" cx="151.67" cy="151.67" r="151.67"/><path class="cls-2" d="M238.09,115.82,276,153.38v-3.54l-43.27,42.93-68.6,68.06-15.88,15.75h3.54L114.88,240v3.54l42.93-43.27,68.06-68.6,15.75-15.88c2.27-2.28-1.26-5.82-3.53-3.53l-42.93,43.27-68.06,68.6L111.35,240a2.54,2.54,0,0,0,0,3.54l36.88,36.55a2.55,2.55,0,0,0,3.54,0L195,237.19l68.59-68.06,15.88-15.75a2.54,2.54,0,0,0,0-3.54l-37.89-37.55C239.34,110,235.8,113.55,238.09,115.82Z" transform="translate(-48.33 -51.67)"/><path class="cls-2" d="M110.71,241.14l-13.6,44.63c-.64,2.09-1.68,4.35-.4,6.42,1.56,2.51,4.17,1.93,6.51,1.34,8.43-2.12,16.79-4.52,25.19-6.78l22.25-6a2.52,2.52,0,0,0,1.11-4.18L114.88,240c-2.28-2.26-5.82,1.27-3.53,3.54l36.88,36.55,1.1-4.18-42.48,11.44c-1.56.42-5.26.67-6.52,1.75-.43.37.34.94.83.5s.66-2.18.84-2.77l7.42-24.36,6.11-20C116.47,239.38,111.64,238.06,110.71,241.14Z" transform="translate(-48.33 -51.67)"/><path class="cls-2" d="M241.62,115.82c5-5,9.71-10.39,15-15,8.05-7,16.54,5.72,21.6,10.87s17.57,13.94,12.7,22.36c-1.76,3-5,5.58-7.45,8.06L276,149.84h3.53l-37.89-37.55c-2.28-2.27-5.82,1.26-3.53,3.53L276,153.38a2.53,2.53,0,0,0,3.53,0c4.5-4.64,9.19-9.15,13.52-13.95,6.24-6.91,4.48-15.24-1.57-21.4L274,100.3c-5.66-5.76-13.09-9.75-20.39-3.51-5.52,4.72-10.42,10.36-15.56,15.5C235.81,114.57,239.34,118.1,241.62,115.82Z" transform="translate(-48.33 -51.67)"/><path class="cls-2" d="M238.09,136.76,151.24,223l-12.17,12.09c-2.29,2.27,1.24,5.8,3.53,3.53l86.85-86.26,12.17-12.09c2.29-2.27-1.25-5.81-3.53-3.54Z" transform="translate(-48.33 -51.67)"/></svg>