<svg id="Layer_1" data-name="Layer 1" xmlns="http://www.w3.org/2000/svg" viewBox="0 0 303.33 303.33"><defs><style>.cls-1{fill:#7b50a0;}.cls-2{fill:#f3ca5f;}</style></defs><title>gender_icon</title><circle class="cls-1" cx="151.67" cy="151.67" r="151.67"/><path class="cls-2" d="M219.13,135.51v11h21.81l-17.75,17.81c-15.27-8.36-25.6-7.88-40,1.94a5.09,5.09,0,0,1-3.15.67c-17.28-1.64-32.88,9.7-35.89,26.18a32.73,32.73,0,0,0,24.2,38.13c.84.22,1.65.57,2.29.8V247H160.6v10.7H171v15.46h11V257.49h10.19V246.66H181.83c0-4.59-.11-8.83.11-13,.05-.81,1.29-1.82,2.21-2.3,4.21-2.21,8.5-4.32,12.8-6.36a7.94,7.94,0,0,1,3.71-1c13.15,1.06,23.73-3.65,31-14.6s7.38-22.57,1.22-34.21c-.46-.87-.94-1.74-1.4-2.61.35.23.7.45,1,.69l17.1-17.09v21.18H259.9c.21-.32.32-.41.32-.51q.11-20.62.2-41.25Zm-56.35,81.16a21.89,21.89,0,0,1-7.08-24.42c2.89-8.24,10.55-14.14,18.33-14.13-5.27,14.79-2.3,29.31,11.78,40.66C178.87,223.48,168.42,221.21,162.78,216.67Zm32-6c-11.34-4.75-15.84-20.08-8.85-30.57C197.55,185.31,202,201,194.74,210.66Zm31-14.43c-2.19,9.09-9.19,15.35-19.14,16.75,5.5-16.38,1.92-30.15-11.85-40.84,6.36-4.47,16.57-2.88,22.38,1.35A22.1,22.1,0,0,1,225.71,196.23Z" transform="translate(-48.33 -51.67)"/></svg>