<svg id="Layer_1" data-name="Layer 1" xmlns="http://www.w3.org/2000/svg" viewBox="0 0 173.69 204"><defs><style>.cls-1{fill:#9c08d9;}.cls-2{fill:#fff;}</style></defs><title>gender</title><path class="cls-1" d="M161.78,305.5V283a2,2,0,0,0-2-2h-15l2,2V267.48l-2,2h14.62a2,2,0,0,0,2-2V245.76a2.08,2.08,0,0,0-1.47-1.93c-6.43-2.41-12.69-4.1-18.43-8.06a45,45,0,0,1-13.38-14.51,46.73,46.73,0,0,1-3.79-37.47,45.1,45.1,0,0,1,26.37-27.56,48,48,0,0,1,18.81-3.29c2.54.06,5.18.59,7.63-.31,3.23-1.18,6.07-3.77,9.08-5.44,7-3.87,14.64-6.55,22.72-6.36,9.2.21,17.81,4,25.78,8.25a2,2,0,0,0,2.43-.31l25.77-25.88a2,2,0,0,0-1.41-3.42h-31.7l2,2v-16l-2,2h60l-2-2-.18,39c0,3,0,6,0,9,0,2.7.88,7.54-.05,10-.68,1.8,1.09.35-.84.74a23.7,23.7,0,0,1-4,0h-8.57l2,2V135.42a2,2,0,0,0-3.42-1.42l-22.06,22c-1.57,1.57-3.51,2.74-3.54,5,0,1.58,1.18,3.32,1.83,4.68a60.08,60.08,0,0,1,3.19,8c5.45,17.56-1,36.46-14.81,48.31a42.09,42.09,0,0,1-19.2,9.23c-6.64,1.32-13.94-.58-20.19,1.91-4.5,1.79-8.86,4.21-13.19,6.38-3,1.5-6.84,2.77-9.21,5.25-2.22,2.33-1.82,5.26-1.88,8.3-.08,4.65,0,9.29,0,13.93a2,2,0,0,0,2,2h15l-2-2v15.73l2-2H175.78a2,2,0,0,0-2,2V305.5l2-2h-16c-2.57,0-2.57,4,0,4h16a2,2,0,0,0,2-2V282.75l-2,2h14.81a2,2,0,0,0,2-2V267a2,2,0,0,0-2-2h-15l2,2c0-4.08-.08-8.16,0-12.23a32.81,32.81,0,0,1,.11-5.06c.43-2.47,1.88-3,4-4.16,3.31-1.82,6.74-3.43,10.13-5.09,3.7-1.81,7.73-4.43,11.93-4.47,11.42-.1,21.93-1.06,31.72-7.61a53.43,53.43,0,0,0,20.71-28.05,45.34,45.34,0,0,0,1.63-19.3A52.16,52.16,0,0,0,255.37,171c-1.26-3.63-3.78-7.26-4.47-11l-.52,1.95c3.51-4.36,8.1-8.15,12.06-12.1l13-13-3.41-1.41V166.2a2,2,0,0,0,2,2h10.2c1.77,0,4.73.68,6.19-.59,1-.87.95-2,1.05-3.16.35-3.92,0-8,.06-12q.12-23.47.22-47a2,2,0,0,0-2-2h-60a2,2,0,0,0-2,2v16a2,2,0,0,0,2,2h31.7l-1.42-3.41-25.77,25.88,2.42-.31c-13.94-7.49-28.83-11.71-44.17-5.82a68.24,68.24,0,0,0-9.85,4.77c-2,1.18-4,2.93-6.11,3.88-2.39,1.07-4.59.54-7.1.48a51.61,51.61,0,0,0-21.11,3.93c-25.92,10.8-37.52,41.59-25.54,67a48.71,48.71,0,0,0,14.07,17.51c6.73,5.27,14.1,7.41,21.94,10.35l-1.47-1.93v21.72l2-2H144.75a2,2,0,0,0-2,2V283a2,2,0,0,0,2,2h15l-2-2V305.5C157.78,308.07,161.78,308.08,161.78,305.5Z" transform="translate(-118.1 -103.5)"/><path class="cls-1" d="M164.26,165.42c-20.88.62-34.77,23-29.1,42.43,5.53,19,29.43,31.52,47.23,20.38a2,2,0,0,0,.41-3.14c-8.59-7.08-15.68-15.86-18.6-26.78-2.71-10.14-1.39-20.55,2-30.36.84-2.44-3-3.49-3.86-1.06-3.6,10.46-4.87,21.68-2,32.48,3.09,11.55,10.52,21,19.62,28.55l.4-3.14c-15.59,9.76-36.52-1.45-41.36-18-4.92-16.84,6.92-36.82,25.25-37.36C166.83,169.34,166.84,165.34,164.26,165.42Z" transform="translate(-118.1 -103.5)"/><path class="cls-1" d="M192.91,160.15c8.49,6.73,15.59,15.1,18.59,25.68s1.44,21.47-1.89,31.72c-.51,1.59,1.07,2.69,2.46,2.46,20.11-3.19,34.6-21.92,28.84-42.39-5.38-19.13-29.69-32.27-47.59-20.61-2.15,1.4-.15,4.86,2,3.45,16.26-10.58,38,2.17,42.08,19.61,4.23,18.17-9,33.32-26.4,36.09l2.46,2.46c3.55-10.93,5.05-22.64,1.89-33.85s-10.61-20.3-19.62-27.45C193.74,155.74,190.89,158.55,192.91,160.15Z" transform="translate(-118.1 -103.5)"/><path class="cls-1" d="M179.77,169.28c-10.25,16.17-4.18,39.22,13.57,47.16a2.08,2.08,0,0,0,2.74-.72c11.33-15.95,3.54-39-13.58-47.16-2.31-1.1-4.34,2.35-2,3.45,15.28,7.27,22.29,27.4,12.13,41.7l2.74-.72c-15.82-7.08-21.32-27.21-12.14-41.69C184.6,169.12,181.14,167.11,179.77,169.28Z" transform="translate(-118.1 -103.5)"/><path class="cls-2" d="M164.26,167.42c-7.67,21.5-3.35,42.59,17.12,59.09-10.09,6.84-25.27,3.54-33.46-3.07A31.77,31.77,0,0,1,137.63,188C141.83,176,152.94,167.41,164.26,167.42Z" transform="translate(-118.1 -103.5)"/><path class="cls-1" d="M162.33,166.89c-3.6,10.46-4.87,21.68-2,32.48,3.09,11.55,10.52,21,19.62,28.55l.4-3.14c-15.59,9.76-36.52-1.45-41.36-18-4.92-16.84,6.92-36.82,25.25-37.36,2.57-.08,2.58-4.08,0-4-20.88.62-34.77,23-29.1,42.43,5.53,19,29.43,31.52,47.23,20.38a2,2,0,0,0,.41-3.14c-8.59-7.08-15.68-15.86-18.6-26.78-2.71-10.14-1.39-20.55,2-30.36C167,165.51,163.16,164.46,162.33,166.89Z" transform="translate(-118.1 -103.5)"/><path class="cls-2" d="M194.32,158.73c9.24-6.5,24.07-4.17,32.51,2,10.36,7.55,15.47,20.75,12.52,33C236.18,207,226,216,211.54,218.08,219.52,194.27,214.34,174.26,194.32,158.73Z" transform="translate(-118.1 -103.5)"/><path class="cls-1" d="M195.33,160.46c16.26-10.58,38,2.17,42.08,19.61,4.23,18.17-9,33.32-26.4,36.09l2.46,2.46c3.55-10.93,5.05-22.64,1.89-33.85s-10.61-20.3-19.62-27.45c-2-1.58-4.85,1.23-2.83,2.83,8.49,6.73,15.59,15.1,18.59,25.68s1.44,21.47-1.89,31.72c-.51,1.59,1.07,2.69,2.46,2.46,20.11-3.19,34.6-21.92,28.84-42.39-5.38-19.13-29.69-32.27-47.59-20.61C191.17,158.41,193.17,161.87,195.33,160.46Z" transform="translate(-118.1 -103.5)"/><path class="cls-2" d="M181.5,170.29c16.93,7.58,23.37,30.38,12.85,44.42C177.88,207.81,171.33,185.53,181.5,170.29Z" transform="translate(-118.1 -103.5)"/><path class="cls-1" d="M180.49,172c15.28,7.27,22.29,27.4,12.13,41.7l2.74-.72c-15.82-7.08-21.32-27.21-12.14-41.69,1.38-2.18-2.08-4.19-3.45-2-10.25,16.17-4.18,39.22,13.57,47.16a2.08,2.08,0,0,0,2.74-.72c11.33-15.95,3.54-39-13.58-47.16C180.19,167.46,178.16,170.91,180.49,172Z" transform="translate(-118.1 -103.5)"/></svg>