<svg id="Layer_1" data-name="Layer 1" xmlns="http://www.w3.org/2000/svg" viewBox="0 0 261.78 161.43"><defs><style>.cls-1{fill:#fff;}.cls-2{fill:#7b50a0;}.cls-3{fill:#ef3e55;}</style></defs><title>messages_icon</title><polygon class="cls-1" points="259.24 2.52 100.22 96.22 188.57 137.98 259.24 2.52"/><path class="cls-2" d="M327.13,131.08l-53.67,31.63-85.61,50.44-19.73,11.63c-1.51.89-1.75,3.49,0,4.32l77.29,36.54,11,5.22a2.55,2.55,0,0,0,3.42-.9l61.79-118.43,8.88-17c1.49-2.85-2.82-5.38-4.31-2.52L264.45,250.41l-8.89,17,3.42-.9L181.69,230l-11.05-5.22v4.32l53.67-31.63L309.92,147l19.74-11.63C332.43,133.77,329.91,129.45,327.13,131.08Z" transform="translate(-69.15 -130.72)"/><polygon class="cls-1" points="100.22 96.22 101.98 158.89 139.32 114.7 100.22 96.22"/><path class="cls-2" d="M166.88,226.94l1.76,62.67c.05,2,2.8,3.51,4.27,1.77l37.33-44.19c.94-1.12,1.06-3.19-.51-3.93l-39.09-18.48c-2.89-1.37-5.43,2.94-2.52,4.32l39.09,18.48-.51-3.93-37.33,44.2,4.27,1.76-1.76-62.67C171.79,223.73,166.79,223.71,166.88,226.94Z" transform="translate(-69.15 -130.72)"/><path class="cls-3" d="M145.91,212l25.23,77.66Z" transform="translate(-69.15 -130.72)"/><path class="cls-2" d="M143.5,212.61l25.23,77.67c1,3.05,5.82,1.74,4.82-1.33l-25.23-77.67c-1-3-5.82-1.74-4.82,1.33l25.23,77.67c1,3.05,5.82,1.74,4.82-1.33l-25.23-77.67C147.33,208.24,142.5,209.54,143.5,212.61Z" transform="translate(-69.15 -130.72)"/><polygon class="cls-1" points="76.75 81.23 2.45 64.26 259.24 2.52 76.75 81.23"/><path class="cls-2" d="M146.57,209.54l-74.3-17v4.82l86.87-20.88,138.33-33.26,31.59-7.6-1.93-4.57-61.52,26.54L167.4,200l-22.75,9.81c-3,1.27-.41,5.58,2.52,4.32l61.52-26.54,98.22-42.36,22.75-9.81c2.68-1.16.72-5.2-1.93-4.57l-86.87,20.89L102.53,185l-31.59,7.6c-2.36.57-2.4,4.27,0,4.82l74.3,17C148.38,215.07,149.71,210.25,146.57,209.54Z" transform="translate(-69.15 -130.72)"/><polygon class="cls-1" points="76.75 81.23 259.24 2.52 100.22 96.22 101.98 158.89 76.75 81.23"/><path class="cls-2" d="M147.17,214.11l61.52-26.54,98.22-42.36,22.75-9.81-2.53-4.32-53.67,31.63-85.61,50.44-19.73,11.63a2.48,2.48,0,0,0-1.24,2.16l1.76,62.67,4.91-.66-25.23-77.67c-1-3-5.82-1.74-4.82,1.33l25.23,77.67c.84,2.59,5,2.26,4.91-.67l-1.76-62.67-1.24,2.16,53.67-31.63L309.92,147l19.74-11.63c2.84-1.68.35-5.56-2.53-4.32l-61.52,26.54L167.4,200l-22.75,9.81C141.7,211.06,144.24,215.37,147.17,214.11Z" transform="translate(-69.15 -130.72)"/></svg>