<svg id="Layer_1" data-name="Layer 1" xmlns="http://www.w3.org/2000/svg" viewBox="0 0 207.83 207.44"><defs><style>.cls-1{fill:#9c08d9;}</style></defs><title>pencil</title><path class="cls-1" d="M243.63,120.8l39.43,39.08v-2.83l-44.83,44.48-71.55,71L150.12,289H153l-38.39-38v2.83L159,208.91l71-71.55,16.43-16.56c1.81-1.83-1-4.66-2.83-2.83L199.15,162.8l-71,71.55-16.42,16.56a2,2,0,0,0,0,2.83l38.38,38a2,2,0,0,0,2.83,0l44.82-44.48,71.56-71,16.56-16.43a2,2,0,0,0,0-2.83L246.46,118C244.63,116.16,241.8,119,243.63,120.8Z" transform="translate(-96.04 -98.67)"/><path class="cls-1" d="M111.22,251.8,97.07,298.23c-.59,1.94-1.69,4.24-.52,6.17,1.5,2.48,4.16,1.72,6.4,1.11l26.34-7.09,22.77-6.13A2,2,0,0,0,153,289l-38.39-38c-1.83-1.81-4.66,1-2.82,2.83l38.38,38,.88-3.35-44,11.85c-1.08.29-6,2.43-7,1.89-.42-.22.22.62.17-.3s.69-2.27.94-3.09l7.59-24.92,6.4-21C115.83,250.39,112,249.34,111.22,251.8Z" transform="translate(-96.04 -98.67)"/><path class="cls-1" d="M246.46,120.8c5.14-5.14,10.07-10.66,15.5-15.5,8.84-7.87,17.79,5.45,23.44,11.2s18.8,15,13.19,24.17c-2,3.27-5.47,6-8.1,8.71l-7.43,7.67h2.83L246.46,118c-1.83-1.81-4.66,1-2.83,2.83l39.43,39.08a2,2,0,0,0,2.83,0c4.68-4.83,9.56-9.53,14.08-14.52,6.24-6.89,4.45-15.2-1.58-21.34l-18.31-18.64c-1.92-2-3.74-4.1-6.22-5.36-5-2.55-10.55-1.31-14.6,2.32-5.46,4.9-10.44,10.44-15.63,15.63C241.81,119.8,244.63,122.63,246.46,120.8Z" transform="translate(-96.04 -98.67)"/><path class="cls-1" d="M243.63,143.45,153.37,233.1l-12.79,12.7c-1.83,1.81,1,4.64,2.83,2.83L233.67,159l12.79-12.71c1.83-1.81-1-4.64-2.83-2.82Z" transform="translate(-96.04 -98.67)"/></svg>