<svg id="Layer_1" data-name="Layer 1" xmlns="http://www.w3.org/2000/svg" viewBox="0 0 140.1 131.88"><defs><style>.cls-1{fill:#dc4d9a;}</style></defs><title>pinkbox</title><path class="cls-1" d="M125,121.88H32.74l2.5,2.5V32.12l-2.5,2.5H125l-2.5-2.5v92.26c0,3.22,5,3.22,5,0V32.12a2.53,2.53,0,0,0-2.5-2.5H32.74a2.53,2.53,0,0,0-2.5,2.5v92.26a2.53,2.53,0,0,0,2.5,2.5H125C128.22,126.88,128.22,121.88,125,121.88Z" transform="translate(-30.24 -29.62)"/><path class="cls-1" d="M167.84,156.5H75.57l2.5,2.5V66.74l-2.5,2.5h92.27l-2.5-2.5V159c0,3.22,5,3.22,5,0V66.74a2.54,2.54,0,0,0-2.5-2.5H75.57a2.53,2.53,0,0,0-2.5,2.5V159a2.54,2.54,0,0,0,2.5,2.5h92.27C171.05,161.5,171.06,156.5,167.84,156.5Z" transform="translate(-30.24 -29.62)"/></svg>