<svg id="Layer_1" data-name="Layer 1" xmlns="http://www.w3.org/2000/svg" viewBox="0 0 177.5 193.41"><defs><style>.cls-1{fill:#f5f50f;}.cls-2{fill:#f2ca5f;}.cls-3{fill:#f23ab2;}.cls-4{fill:none;stroke:#000;stroke-miterlimit:10;}.cls-5{fill:#f2ca5e;}.cls-6{fill:#82499b;}.cls-7{fill:#fff;}</style></defs><title>rollerskatelogo</title><path class="cls-1" d="M39.16,28.84C44.92,23.18,66.3,3.42,80.59,6.65c0,0,22,3.72,1.28,22.36Z" transform="translate(-12.5 -6.3)"/><path class="cls-2" d="M30.13,36c5.76-5.65,27.14-25.42,41.42-22.18,0,0,22,3.71,1.28,22.36Z" transform="translate(-12.5 -6.3)"/><polygon class="cls-1" points="4.06 141.43 177.5 141.43 175.74 147.71 6.74 147.71 4.06 141.43"/><path class="cls-3" d="M82.5,28.48s1.75,76.32,80.56,83.31c0,0,23.7-2.75,26.94,32.92H14.66s-5.6-11.29,1.25-47.89c0,0,7.73-47.14,7.23-69.59C23.14,27.23,55.07,14.51,82.5,28.48Z" transform="translate(-12.5 -6.3)"/><path class="cls-4" d="M170,69.16" transform="translate(-12.5 -6.3)"/><circle class="cls-1" cx="95.02" cy="94" r="6.27"/><circle class="cls-5" cx="95" cy="94" r="4.1"/><circle class="cls-1" cx="83.32" cy="83.29" r="6.27"/><circle class="cls-5" cx="83.31" cy="83.29" r="4.1"/><circle class="cls-1" cx="72.93" cy="69.91" r="6.27"/><circle class="cls-5" cx="72.92" cy="69.91" r="4.1"/><circle class="cls-1" cx="65.95" cy="55.4" r="6.27"/><circle class="cls-5" cx="65.93" cy="55.4" r="4.1"/><circle class="cls-1" cx="61.02" cy="39.52" r="6.27"/><circle class="cls-5" cx="61" cy="39.52" r="4.1"/><circle class="cls-1" cx="108.34" cy="102.7" r="6.27"/><circle class="cls-5" cx="108.32" cy="102.7" r="4.1"/><circle class="cls-1" cx="123.62" cy="109.48" r="6.27"/><circle class="cls-5" cx="123.6" cy="109.48" r="4.1"/><circle class="cls-1" cx="143.9" cy="114.5" r="6.27"/><circle class="cls-5" cx="143.88" cy="114.5" r="4.1"/><path class="cls-6" d="M162.57,111.74a2.25,2.25,0,0,1-.15.62l-3.58,8.84a2.27,2.27,0,0,1-2.94,1.25l-.35-.15a2.25,2.25,0,0,1-1.25-2.94l3.3-8.18Z" transform="translate(-12.5 -6.3)"/><path class="cls-6" d="M141.94,107.84a2.07,2.07,0,0,1-.1.33L138.27,117a2.27,2.27,0,0,1-2.94,1.25l-.36-.15a2.27,2.27,0,0,1-1.25-2.94l3.58-8.84Z" transform="translate(-12.5 -6.3)"/><path class="cls-6" d="M126.93,101.8l-3.21,7.94a2.27,2.27,0,0,1-2.94,1.25l-.36-.15a2.27,2.27,0,0,1-1.25-2.94l3.45-8.51Z" transform="translate(-12.5 -6.3)"/><path class="cls-6" d="M115.88,94.83l-6.89,6.4a2.26,2.26,0,0,1-3.19-.12l-.27-.28a2.27,2.27,0,0,1,.12-3.19L112,91.71Z" transform="translate(-12.5 -6.3)"/><path class="cls-6" d="M104.66,84.38a1.81,1.81,0,0,1-.29.33l-7,6.48a2.25,2.25,0,0,1-3.19-.12l-.26-.28a2.27,2.27,0,0,1,.12-3.19l7-6.48a2.1,2.1,0,0,1,.6-.4Z" transform="translate(-12.5 -6.3)"/><path class="cls-6" d="M97.11,74.28a2.28,2.28,0,0,1-.72.39l-9.08,2.89a2.28,2.28,0,0,1-2.84-1.47l-.11-.37a2.25,2.25,0,0,1,1.46-2.83l8.79-2.8Z" transform="translate(-12.5 -6.3)"/><path class="cls-6" d="M89.93,60.4a2.21,2.21,0,0,1-.75.42l-9.09,2.89a2.26,2.26,0,0,1-2.84-1.47l-.11-.36A2.26,2.26,0,0,1,78.61,59l9.08-2.89a2,2,0,0,1,.57-.1Z" transform="translate(-12.5 -6.3)"/><path class="cls-6" d="M85.25,46.14a2.21,2.21,0,0,1-.93.43L75,48.41a2.26,2.26,0,0,1-2.65-1.78l-.07-.38A2.26,2.26,0,0,1,74,43.6l9.35-1.84a2.17,2.17,0,0,1,.88,0Z" transform="translate(-12.5 -6.3)"/><path class="cls-2" d="M23.8,98.58s-9.24,20.72-5.63,42.57H53.3S47.9,98.58,23.8,98.58Z" transform="translate(-12.5 -6.3)"/><path class="cls-2" d="M25.65,162.3l15,16.6a1.45,1.45,0,0,0,2.19,0l12.75-15.2a4.16,4.16,0,0,0-3.18-6.84H28.08A3.28,3.28,0,0,0,25.65,162.3Z" transform="translate(-12.5 -6.3)"/><path class="cls-2" d="M154.67,162.3l15,16.6a1.45,1.45,0,0,0,2.19,0l12.75-15.2a4.16,4.16,0,0,0-3.18-6.84H157.1A3.28,3.28,0,0,0,154.67,162.3Z" transform="translate(-12.5 -6.3)"/><circle class="cls-7" cx="29.23" cy="173.84" r="19.56"/><circle class="cls-2" cx="29.23" cy="173.84" r="11.05"/><circle class="cls-1" cx="29.23" cy="173.84" r="5.4"/><circle class="cls-7" cx="157.19" cy="173.84" r="19.56"/><circle class="cls-2" cx="157.19" cy="173.84" r="11.05"/><circle class="cls-1" cx="157.19" cy="173.84" r="5.4"/></svg>