<svg id="Layer_1" data-name="Layer 1" xmlns="http://www.w3.org/2000/svg" viewBox="0 0 37.85 180.71"><defs><style>.cls-1{fill:#dc4b9a;}</style></defs><title>sqiggle</title><path class="cls-1" d="M85.08,13.27H81.55L114.4,46.12V42.59L87,70c-2.28,2.28,1.25,5.81,3.53,3.53l27.43-27.43a2.54,2.54,0,0,0,0-3.53L85.09,9.73a2.54,2.54,0,0,0-3.54,0h0c-2.28,2.28,1.25,5.81,3.53,3.53Z" transform="translate(-80.81 -9.01)"/><path class="cls-1" d="M87,73.55,114.4,101V97.44L86.82,125c-2.28,2.28,1.26,5.82,3.54,3.54L117.94,101a2.55,2.55,0,0,0,0-3.54L90.51,70c-2.28-2.28-5.81,1.26-3.53,3.53Z" transform="translate(-80.81 -9.01)"/><path class="cls-1" d="M86.82,128.57l27.58,27.59v-3.53L81.55,185.47h3.53c-2.28-2.28-5.81,1.25-3.53,3.53h0a2.55,2.55,0,0,0,3.54,0l32.85-32.85a2.54,2.54,0,0,0,0-3.53L90.36,125c-2.28-2.27-5.82,1.26-3.54,3.54Z" transform="translate(-80.81 -9.01)"/></svg>