<svg id="Layer_1" data-name="Layer 1" xmlns="http://www.w3.org/2000/svg" viewBox="0 0 295.28 267.21"><defs><style>.cls-1{fill:#fff;}.cls-2{fill:#9806f5;}</style></defs><title>tick</title><polyline class="cls-1" points="265.28 29.9 95.74 237.45 30.09 135.8"/><path class="cls-2" d="M296.29,79l-57.38,70.25L147.57,261.07l-20.82,25.48,47.12,6.07-57.53-89.07L108.22,191c-8.5-13.16-27-19.81-41-10.76-13.16,8.49-19.87,26.95-10.76,41l57.53,89.07,8.12,12.57C127.26,331,134.47,336,144,337.23c8.64,1.16,19.33-1.07,25.2-8.25l57.38-70.25L317.9,146.9l20.81-25.48c5.19-6.35,8.79-12.71,8.79-21.21,0-7.36-3.27-16.15-8.79-21.22-11-10.08-31.82-13-42.42,0Z" transform="translate(-52.22 -70.31)"/></svg>