<svg id="Layer_1" data-name="Layer 1" xmlns="http://www.w3.org/2000/svg" viewBox="0 0 180.71 37.85"><defs><style>.cls-1{fill:#efe82b;}</style></defs><title>yellowline</title><path class="cls-1" d="M186.44,91.59h0V88.06l-32.86,32.85h3.54L129.69,93.49c-2.27-2.28-5.81,1.25-3.53,3.53l27.43,27.43a2.55,2.55,0,0,0,3.54,0L190,91.6a2.54,2.54,0,0,0,0-3.54h0c-2.28-2.28-5.82,1.26-3.54,3.54Z" transform="translate(-9.99 -87.32)"/><path class="cls-1" d="M126.16,93.49,98.73,120.91h3.54L74.68,93.33c-2.28-2.28-5.82,1.25-3.54,3.53l27.59,27.59a2.55,2.55,0,0,0,3.54,0L129.69,97c2.28-2.28-1.25-5.81-3.53-3.53Z" transform="translate(-9.99 -87.32)"/><path class="cls-1" d="M71.14,93.33,43.55,120.91h3.54L14.24,88.06V91.6h0c2.28-2.28-1.26-5.82-3.54-3.54h0a2.55,2.55,0,0,0,0,3.54l32.85,32.85a2.55,2.55,0,0,0,3.54,0L74.68,96.86c2.28-2.27-1.26-5.81-3.54-3.53Z" transform="translate(-9.99 -87.32)"/></svg>